<svg width="64" height="64" viewBox="0 0 64 64" fill="none" xmlns="http://www.w3.org/2000/svg">
<g clip-path="url(#clip0_15_9)">
<path d="M39.8449 31.2479C39.2344 31.5701 39.0006 32.3262 39.3229 32.9369C41.5357 37.1294 41.8519 42.0775 40.2132 46.8697C39.1831 49.8826 37.4167 52.664 35.2437 54.7906C36.036 51.4037 35.9285 48.3914 34.9382 45.5132C33.686 41.8737 31.1762 38.804 27.7931 35.3145C22.8531 30.2192 22.4074 24.6517 22.9034 20.8784C23.4829 16.4696 25.6746 12.1984 28.7644 9.19136C28.1979 11.617 28.0886 13.8559 28.4284 15.9659C28.8847 18.8012 30.1425 21.4717 32.3867 24.3704C32.8095 24.9164 33.5947 25.016 34.1404 24.5935C34.6862 24.1709 34.7861 23.3856 34.3635 22.8399C30.9465 18.4265 29.2919 13.9117 32.3234 6.22249C32.5196 5.72461 32.3772 5.15686 31.969 4.81074C31.561 4.46461 30.9776 4.41674 30.5184 4.69161C25.2375 7.85336 21.2756 14.0792 20.4246 20.5526C20.0421 23.4622 20.2771 26.3072 21.1227 29.0082C22.0487 31.9659 23.6891 34.6731 25.9981 37.0547C32.6686 43.9349 35.2197 48.7906 31.6766 57.7777C31.4804 58.2756 31.6227 58.8432 32.031 59.1895C32.2625 59.3857 32.5502 59.4862 32.8397 59.4862C33.0609 59.4862 33.2829 59.4277 33.4816 59.3087C37.5734 56.8589 40.8892 52.6199 42.5787 47.6787C44.4425 42.2279 44.0714 36.578 41.5337 31.77C41.2117 31.1594 40.4555 30.9254 39.8449 31.2479Z" fill="#5D606F"/>
<path d="M53.7327 13.3094C49.9016 9.35773 48.5275 6.74498 50.513 1.70848C50.7092 1.21061 50.5669 0.642982 50.1587 0.296732C49.7504 -0.0495175 49.167 -0.0973926 48.7081 0.177607C45.4816 2.10948 43.0616 5.90748 42.543 9.85361C42.0512 13.5939 43.2621 17.1819 45.9522 19.9566C49.7834 23.9082 51.1575 26.521 49.172 31.5575C48.9757 32.0554 49.1181 32.623 49.5262 32.9692C49.7579 33.1655 50.0455 33.266 50.3351 33.266C50.5562 33.266 50.7782 33.2075 50.977 33.0885C54.2035 31.1566 56.6235 27.3586 57.1421 23.4125C57.6337 19.672 56.4229 16.0841 53.7327 13.3094ZM54.6634 23.0866C54.4165 24.9647 53.6492 26.7972 52.5367 28.3066C52.6471 26.9292 52.4851 25.6404 52.0541 24.3879C51.2437 22.0325 49.5051 20.0297 47.7471 18.2164C44.9945 15.3772 44.7456 12.2787 45.0215 10.1794C45.2684 8.30123 46.0356 6.46873 47.1481 4.95936C47.0377 6.33673 47.1997 7.62561 47.6307 8.87811C48.4411 11.2335 50.1797 13.2362 51.9377 15.0496C54.6905 17.8887 54.9392 20.9872 54.6634 23.0866Z" fill="#5D606F"/>
<path d="M14.8282 32.4426C15.0245 31.9447 14.8821 31.377 14.4739 31.0309C14.0656 30.6846 13.4824 30.6369 13.0232 30.9117C9.79674 32.8436 7.37661 36.6416 6.85799 40.5877C6.36636 44.3281 7.57711 47.916 10.2674 50.6907C14.0985 54.6424 15.4726 57.2551 13.487 62.2916C13.2907 62.7895 13.4331 63.3572 13.8414 63.7034C14.0729 63.8997 14.3606 64.0001 14.6501 64.0001C14.8711 64.0001 15.0932 63.9416 15.292 63.8226C18.5185 61.8907 20.9386 58.0927 21.4572 54.1466C21.9489 50.4062 20.7381 46.8184 18.0479 44.0436C14.2167 40.0919 12.8426 37.4791 14.8282 32.4426ZM18.9785 53.8207C18.7316 55.6989 17.9644 57.5314 16.8519 59.0407C16.9622 57.6635 16.8002 56.3745 16.3692 55.1221C15.5589 52.7666 13.8202 50.7639 12.0621 48.9505C9.30949 46.1114 9.06061 43.0129 9.33649 40.9135C9.58336 39.0354 10.3506 37.2029 11.4631 35.6935C11.3527 37.0707 11.5147 38.3597 11.9457 39.6121C12.7561 41.9676 14.4947 43.9704 16.2529 45.7837C19.0056 48.6229 19.2545 51.7214 18.9785 53.8207Z" fill="#5D606F"/>
<path d="M37.105 29.0648C37.7953 29.0648 38.355 28.5051 38.355 27.8148C38.355 27.1244 37.7953 26.5648 37.105 26.5648C36.4146 26.5648 35.855 27.1244 35.855 27.8148C35.855 28.5051 36.4146 29.0648 37.105 29.0648Z" fill="#5D606F"/>
</g>
<defs>
<clipPath id="clip0_15_9">
<rect width="64" height="64" fill="white"/>
</clipPath>
</defs>
</svg>
