<svg width="64" height="65" viewBox="0 0 64 65" fill="none" xmlns="http://www.w3.org/2000/svg">
<g clip-path="url(#clip0_15_20)">
<path d="M29.5318 43.4931C30.0205 43.0034 30.0205 42.2108 29.5318 41.7211C29.0425 41.2329 28.25 41.2329 27.7602 41.7211C27.272 42.2108 27.272 43.0034 27.7602 43.4931C28.25 43.9814 29.0425 43.9814 29.5318 43.4931Z" fill="#5D606F"/>
<path d="M23.6023 13.773C23.6023 21.3674 29.7809 27.5465 37.3753 27.5465C44.9697 27.5465 51.1483 21.3674 51.1483 13.773C51.1483 6.17857 44.9697 0 37.3753 0C29.7809 0 23.6023 6.17857 23.6023 13.773ZM48.6444 13.773C48.6444 19.9868 43.5891 25.0421 37.3753 25.0421C31.1615 25.0421 26.1062 19.9868 26.1062 13.773C26.1062 7.55969 31.1615 2.5044 37.3753 2.5044C43.5891 2.5044 48.6444 7.55969 48.6444 13.773Z" fill="#5D606F"/>
<path d="M14.4848 63.7549C14.9702 64.2441 15.7603 64.2495 16.252 63.7652L22.3224 57.7847C23.3537 56.7534 23.6673 55.2265 23.2138 53.8992L24.5196 52.6399C25.2226 51.9609 26.1482 51.5866 27.1267 51.5866H43.772C46.725 51.5866 49.5161 50.4526 51.6321 48.3934C51.7192 48.3087 50.9711 49.1898 62.9878 34.8278C64.7701 32.7192 64.5034 29.5529 62.3929 27.7686C60.2955 26.001 57.1536 26.2549 55.3664 28.3273L47.978 35.9212C47.045 34.773 45.6223 34.0573 44.0851 34.0573H30.1228C28.136 33.226 26.0279 32.8053 23.8527 32.8053C17.8234 32.8053 12.5587 35.59 9.73337 40.8112C8.54305 40.5856 7.28767 40.9457 6.38454 41.8488L0.428083 47.8229C-0.0582189 48.3107 -0.0591973 49.0998 0.426126 49.5891L14.4848 63.7549ZM23.8522 35.3092C25.7701 35.3092 27.6243 35.6952 29.3645 36.4565C29.523 36.5259 29.6937 36.5617 29.8664 36.5617H44.0851C45.4428 36.5617 46.5895 37.6688 46.5895 39.0656C46.5895 40.4467 45.4662 41.57 44.0851 41.57H33.8694C33.1781 41.57 32.6174 42.1306 32.6174 42.8219C32.6174 43.5137 33.1781 44.0739 33.8694 44.0739H44.0851C46.8469 44.0739 49.0934 41.8273 49.0934 39.0656C49.0934 38.8454 49.0778 38.6272 49.0494 38.411C56.1967 31.0641 57.2045 30.0318 57.2476 29.9804C58.1399 28.9271 59.7241 28.7936 60.7779 29.682C61.8327 30.5739 61.9662 32.1571 61.0714 33.2163L49.841 46.6419C48.2011 48.2163 46.0479 49.0827 43.772 49.0827H27.1267C25.4956 49.0827 23.9516 49.7065 22.7803 50.8381L21.7162 51.865L11.907 42.0563C14.1996 37.7554 18.5015 35.3092 23.8522 35.3092ZM8.15656 43.6184C8.56947 43.2055 9.20352 43.1311 9.70695 43.4423C9.92368 43.5744 9.30137 43.0078 20.5519 54.2427C21.0523 54.7432 21.0254 55.5406 20.5587 56.0074L15.3836 61.1057L3.08072 48.7089L8.15656 43.6184Z" fill="#5D606F"/>
<path d="M35.8728 6.26075V7.72797C34.4153 8.2446 33.3684 9.63648 33.3684 11.2691C33.3684 13.34 35.0533 15.0254 37.1247 15.0254C37.815 15.0254 38.3767 15.5871 38.3767 16.2774C38.3767 16.9677 37.815 17.5293 37.1247 17.5293C36.59 17.5293 36.0122 17.1932 35.499 16.5822C35.0538 16.0528 34.2642 15.9848 33.7348 16.4295C33.2055 16.8747 33.137 17.6644 33.5822 18.1937C34.2514 18.9897 35.0386 19.5445 35.8728 19.8243V21.2857C35.8728 21.9775 36.4334 22.5377 37.1247 22.5377C37.816 22.5377 38.3767 21.9775 38.3767 21.2857V19.8185C39.8341 19.3014 40.8811 17.9095 40.8811 16.2774C40.8811 14.206 39.1962 12.521 37.1247 12.521C36.4344 12.521 35.8728 11.9594 35.8728 11.2691C35.8728 10.5788 36.4344 10.0166 37.1247 10.0166C37.5685 10.0166 38.0367 10.2431 38.4789 10.6712C38.976 11.1521 39.7686 11.1389 40.2495 10.6424C40.7304 10.1453 40.7172 9.35272 40.2206 8.8718C39.5851 8.25683 38.9491 7.90899 38.3767 7.71916V6.26075C38.3767 5.56897 37.816 5.0083 37.1247 5.0083C36.4334 5.0083 35.8728 5.56897 35.8728 6.26075Z" fill="#5D606F"/>
</g>
<defs>
<clipPath id="clip0_15_20">
<rect width="64" height="64.1252" fill="white"/>
</clipPath>
</defs>
</svg>
