<svg width="52" height="18" viewBox="0 0 52 18" fill="none" xmlns="http://www.w3.org/2000/svg">
<path d="M10.16 16.432C10.096 16.432 10.064 16.4 10.064 16.336C10.064 16.272 10.112 16.16 10.208 16C10.336 15.744 10.4 15.544 10.4 15.4C10.4 15.16 10.264 14.992 9.992 14.896C9.72 14.8 9.344 14.752 8.864 14.752C8.624 14.752 8.352 14.768 8.048 14.8C7.76 14.816 7.44 14.84 7.088 14.872C6.64 14.92 6.128 15 5.552 15.112C4.976 15.224 4.408 15.352 3.848 15.496C3.304 15.624 2.84 15.76 2.456 15.904C2.648 15.856 2.904 15.792 3.224 15.712C3.544 15.632 3.864 15.552 4.184 15.472C4.52 15.392 4.784 15.336 4.976 15.304C5.056 15.288 5.12 15.28 5.168 15.28C5.232 15.28 5.248 15.288 5.216 15.304C5.056 15.336 4.792 15.4 4.424 15.496C4.056 15.592 3.672 15.696 3.272 15.808C2.872 15.904 2.52 15.992 2.216 16.072C1.928 16.152 1.768 16.2 1.736 16.216C1.672 16.232 1.616 16.24 1.568 16.24C1.52 16.256 1.48 16.264 1.448 16.264C1.224 16.264 1.056 16.176 0.944 16C0.848 15.84 0.76 15.712 0.68 15.616C0.584 15.52 0.552 15.384 0.584 15.208C0.52 15.208 0.472 15.216 0.44 15.232C0.44 15.168 0.432 15.096 0.416 15.016C0.416 14.936 0.416 14.864 0.416 14.8C0.416 14.656 0.44 14.568 0.488 14.536C0.824 14.008 1.184 13.496 1.568 13C1.952 12.504 2.352 11.984 2.768 11.44C3.952 9.92 5.216 8.32 6.56 6.64C7.92 4.96 9.216 3.344 10.448 1.792C10.432 1.712 10.408 1.616 10.376 1.504C10.344 1.376 10.328 1.256 10.328 1.144C10.328 0.984 10.368 0.848 10.448 0.735999C10.528 0.624 10.672 0.568 10.88 0.568C11.056 0.568 11.24 0.599999 11.432 0.663999C11.624 0.743999 11.848 0.872 12.104 1.048C12.36 1.224 12.584 1.408 12.776 1.6C12.984 1.792 13.088 1.976 13.088 2.152C13.088 2.408 12.864 2.768 12.416 3.232C11.984 3.68 11.456 4.232 10.832 4.888C10.448 5.288 10.008 5.776 9.512 6.352C9.016 6.912 8.52 7.48 8.024 8.056C7.544 8.632 7.12 9.136 6.752 9.568C6.4 9.984 6.176 10.248 6.08 10.36C6.096 10.296 6.192 10.152 6.368 9.928C6.56 9.688 6.776 9.424 7.016 9.136C7.272 8.832 7.496 8.568 7.688 8.344C7.768 8.264 7.888 8.12 8.048 7.912C8.208 7.704 8.376 7.48 8.552 7.24C8.728 6.984 8.88 6.768 9.008 6.592C9.136 6.4 9.2 6.288 9.2 6.256C9.2 6.256 9.184 6.264 9.152 6.28C9.136 6.296 9.096 6.344 9.032 6.424C8.952 6.504 8.784 6.704 8.528 7.024C8.288 7.344 8.008 7.704 7.688 8.104C7.384 8.504 7.088 8.888 6.8 9.256C6.528 9.608 6.312 9.872 6.152 10.048C5.496 10.752 4.888 11.432 4.328 12.088C3.768 12.728 3.304 13.304 2.936 13.816C2.952 13.816 2.968 13.816 2.984 13.816C3 13.8 3.016 13.792 3.032 13.792C3.176 13.728 3.44 13.656 3.824 13.576C4.208 13.496 4.656 13.416 5.168 13.336C5.68 13.256 6.192 13.184 6.704 13.12C7.216 13.056 7.672 13.008 8.072 12.976C8.488 12.928 8.784 12.904 8.96 12.904C9.2 12.904 9.48 12.928 9.8 12.976C10.12 13.008 10.424 13.064 10.712 13.144C11.016 13.208 11.232 13.304 11.36 13.432C11.072 13.304 10.76 13.208 10.424 13.144C10.104 13.08 9.76 13.04 9.392 13.024C9.952 13.072 10.488 13.192 11 13.384C11.336 13.496 11.568 13.64 11.696 13.816C11.84 13.992 11.912 14.176 11.912 14.368C11.912 14.624 11.816 14.896 11.624 15.184C11.448 15.456 11.232 15.712 10.976 15.952C10.912 16.016 10.784 16.112 10.592 16.24C10.4 16.368 10.256 16.432 10.16 16.432ZM3.272 13.744C3.512 13.696 3.824 13.648 4.208 13.6C4.592 13.536 4.976 13.472 5.36 13.408C5.76 13.344 6.08 13.288 6.32 13.24C6.688 13.16 7.144 13.096 7.688 13.048C8.232 13 8.784 12.992 9.344 13.024C9.248 13.008 9.152 13 9.056 13C8.96 13 8.856 13 8.744 13C8.168 13 7.48 13.048 6.68 13.144C6.52 13.16 6.232 13.208 5.816 13.288C5.4 13.352 4.952 13.424 4.472 13.504C4.008 13.584 3.608 13.664 3.272 13.744ZM16.3027 1.192C17.0387 0.967999 17.8067 0.799999 18.6067 0.688C19.4067 0.559999 20.2467 0.495999 21.1267 0.495999C21.3347 0.495999 21.5427 0.503999 21.7507 0.519999C21.9747 0.519999 22.1907 0.527999 22.3987 0.543999C22.2547 0.543999 22.1027 0.543999 21.9427 0.543999C21.7987 0.527999 21.6547 0.519999 21.5107 0.519999C20.7267 0.519999 19.9667 0.559999 19.2307 0.639999C18.5107 0.703999 17.8947 0.791999 17.3827 0.904C17.2227 0.951999 17.0467 0.999999 16.8547 1.048C16.6787 1.08 16.4947 1.128 16.3027 1.192ZM18.5347 16.264C18.4227 16.264 18.3107 16.256 18.1987 16.24C18.0867 16.24 17.9667 16.232 17.8387 16.216C17.4707 16.152 17.2147 15.992 17.0707 15.736C16.9427 15.464 16.8787 15.176 16.8787 14.872C16.8787 14.568 16.9187 14.296 16.9987 14.056C17.0947 13.736 17.3267 13.272 17.6947 12.664C18.0627 12.04 18.5107 11.344 19.0387 10.576C19.5667 9.792 20.1267 8.984 20.7187 8.152C21.3107 7.304 21.8947 6.488 22.4707 5.704C23.0467 4.92 23.5667 4.224 24.0307 3.616C24.4947 2.992 24.8467 2.52 25.0867 2.2C24.7667 2.456 24.5027 2.736 24.2947 3.04C24.1027 3.328 23.9267 3.488 23.7667 3.52C23.9587 3.296 24.2147 3 24.5347 2.632C24.8547 2.264 25.0547 1.928 25.1347 1.624C25.0067 1.592 24.8627 1.576 24.7027 1.576C24.5427 1.576 24.3747 1.576 24.1987 1.576C23.4467 1.576 22.5347 1.64 21.4627 1.768C20.3907 1.896 19.3747 2.064 18.4147 2.272C18.2547 2.304 17.9827 2.392 17.5987 2.536C17.2147 2.664 16.7747 2.832 16.2787 3.04C15.7987 3.248 15.3187 3.488 14.8387 3.76C14.3587 4.032 13.9427 4.328 13.5907 4.648C13.2547 4.952 13.0387 5.272 12.9427 5.608C13.0067 5.736 13.0387 5.856 13.0387 5.968C13.0387 6.192 12.9267 6.304 12.7027 6.304C12.5107 6.304 12.3027 6.192 12.0787 5.968C11.8547 5.744 11.7427 5.432 11.7427 5.032C11.7427 4.824 11.7747 4.624 11.8387 4.432C11.9187 4.16 12.0387 3.912 12.1987 3.688C12.3587 3.448 12.5427 3.224 12.7507 3.016L12.6547 3.064L12.8227 2.968L12.7507 3.016C13.2787 2.728 13.7987 2.44 14.3107 2.152C14.8387 1.864 15.4467 1.608 16.1347 1.384C16.8387 1.144 17.6227 0.952 18.4867 0.808C19.3667 0.648 20.3187 0.568 21.3427 0.568C21.9507 0.568 22.5987 0.599999 23.2867 0.663999C23.9747 0.727999 24.6867 0.831999 25.4227 0.975999C25.5347 1.008 25.5907 1 25.5907 0.951999C25.5907 0.92 25.5267 0.895999 25.3987 0.879999C24.9987 0.799999 24.5987 0.735999 24.1987 0.688C23.7987 0.624 23.4067 0.584 23.0227 0.568C23.4067 0.584 23.7827 0.615999 24.1507 0.663999C24.5347 0.695999 24.9027 0.751999 25.2547 0.831999V0.759999C25.2547 0.647999 25.3187 0.592 25.4467 0.592C25.4787 0.592 25.5587 0.607999 25.6867 0.639999C25.8147 0.687999 25.9747 0.759999 26.1667 0.855999C26.3747 0.952 26.5747 1.064 26.7667 1.192C27.3267 1.192 27.9267 1.256 28.5667 1.384C29.2067 1.512 29.8147 1.704 30.3907 1.96C30.9667 2.216 31.4387 2.536 31.8067 2.92C32.1747 3.304 32.3587 3.752 32.3587 4.264C32.3587 4.616 32.2627 4.984 32.0707 5.368C32.1187 5.576 32.1427 5.784 32.1427 5.992C32.1427 6.488 32.0387 6.944 31.8307 7.36C31.6227 7.776 31.3347 8.168 30.9667 8.536C31.1427 8.376 31.3107 8.192 31.4707 7.984C31.6467 7.76 31.8387 7.448 32.0467 7.048C31.9027 7.496 31.7267 7.848 31.5187 8.104C31.3267 8.344 31.1347 8.552 30.9427 8.728C30.5747 9.096 30.1747 9.392 29.7427 9.616C29.3107 9.824 28.7587 10.088 28.0867 10.408C27.9267 10.472 27.7187 10.544 27.4627 10.624C27.2227 10.688 26.9587 10.76 26.6707 10.84C27.4707 10.6 28.2467 10.288 28.9987 9.904C29.7667 9.52 30.4067 9.08 30.9187 8.584L30.7267 8.752C30.2147 9.2 29.7507 9.52 29.3347 9.712C28.9187 9.904 28.6707 10.016 28.5907 10.048C28.2867 10.16 27.8867 10.296 27.3907 10.456C26.8947 10.616 26.4227 10.76 25.9747 10.888C25.5267 11.016 25.2147 11.104 25.0387 11.152L24.9907 11.176C25.1507 11.16 25.3107 11.144 25.4707 11.128C25.6307 11.096 25.7907 11.064 25.9507 11.032C25.9987 11.016 26.0467 11 26.0947 10.984C26.0947 10.984 26.0867 10.984 26.0707 10.984C26.0547 10.984 26.0147 11 25.9507 11.032C25.2947 11.176 24.6707 11.288 24.0787 11.368C23.5027 11.448 22.9907 11.488 22.5427 11.488C22.2867 11.488 22.1267 11.472 22.0627 11.44C21.9987 11.392 21.9507 11.336 21.9187 11.272C21.9187 11.192 21.9747 11.12 22.0867 11.056C22.1187 11.04 22.1427 11.024 22.1587 11.008C22.1907 10.992 22.2227 10.976 22.2547 10.96C22.9747 10.8 23.7427 10.576 24.5587 10.288C25.3907 9.984 26.2067 9.632 27.0067 9.232C27.8067 8.816 28.5267 8.376 29.1667 7.912C29.8227 7.432 30.3427 6.944 30.7267 6.448C31.1267 5.936 31.3267 5.44 31.3267 4.96C31.3267 4.512 31.1267 4.12 30.7267 3.784C30.3427 3.448 29.8547 3.168 29.2627 2.944C28.6867 2.704 28.1187 2.528 27.5587 2.416C27.3827 2.608 27.0947 2.936 26.6947 3.4C26.3107 3.864 25.8627 4.416 25.3507 5.056C24.8387 5.696 24.2947 6.376 23.7187 7.096C23.1587 7.816 22.6067 8.528 22.0627 9.232C21.7587 9.632 21.4307 10.08 21.0787 10.576C20.7267 11.056 20.3827 11.552 20.0467 12.064C19.7267 12.56 19.4627 13.032 19.2547 13.48C19.0467 13.928 18.9427 14.312 18.9427 14.632C18.9427 14.792 18.9667 14.92 19.0147 15.016C19.7187 15.128 20.0707 15.328 20.0707 15.616C20.0707 15.776 19.9267 15.92 19.6387 16.048C19.3667 16.192 18.9987 16.264 18.5347 16.264ZM15.8467 1.336H15.8707L15.8947 1.312H15.9187H15.9427C15.9587 1.296 15.9667 1.288 15.9667 1.288C15.9827 1.288 15.9907 1.288 15.9907 1.288C16.0067 1.288 16.0147 1.288 16.0147 1.288C16.0307 1.272 16.0387 1.264 16.0387 1.264C16.0547 1.264 16.0627 1.264 16.0627 1.264C16.0787 1.264 16.0867 1.264 16.0867 1.264C16.1027 1.248 16.1107 1.24 16.1107 1.24C16.1267 1.24 16.1267 1.24 16.1107 1.24C16.1267 1.24 16.1427 1.24 16.1587 1.24H16.1107L16.0867 1.264H16.0627H16.0387L16.0147 1.288H15.9907C15.9907 1.288 15.9827 1.288 15.9667 1.288C15.9667 1.288 15.9587 1.296 15.9427 1.312C15.9427 1.312 15.9347 1.312 15.9187 1.312C15.9187 1.312 15.9107 1.312 15.8947 1.312C15.8947 1.328 15.8867 1.336 15.8707 1.336C15.8707 1.336 15.8627 1.336 15.8467 1.336ZM15.5107 1.456H15.5347H15.5587L15.5827 1.432C15.5987 1.432 15.6067 1.432 15.6067 1.432C15.6227 1.416 15.6227 1.408 15.6067 1.408C15.6227 1.408 15.6307 1.408 15.6307 1.408H15.6067V1.432C15.6067 1.432 15.5987 1.432 15.5827 1.432C15.5667 1.432 15.5587 1.44 15.5587 1.456C15.5587 1.456 15.5507 1.456 15.5347 1.456C15.5507 1.456 15.5507 1.456 15.5347 1.456C15.5187 1.456 15.5107 1.456 15.5107 1.456ZM12.8227 2.968C13.1747 2.632 13.5827 2.344 14.0467 2.104C14.5267 1.864 15.0147 1.648 15.5107 1.456C15.0627 1.632 14.6307 1.84 14.2147 2.08C13.7987 2.304 13.3987 2.552 13.0147 2.824L12.8227 2.968ZM32.9242 17.176C32.8282 17.176 32.7402 17.176 32.6602 17.176C32.5962 17.176 32.5322 17.168 32.4682 17.152C32.1802 17.12 31.9242 17.024 31.7002 16.864C31.4922 16.72 31.3882 16.544 31.3882 16.336C31.3882 16.304 31.4042 16.24 31.4362 16.144C31.4842 16.016 31.5402 15.976 31.6042 16.024C31.6842 16.088 31.7242 16.088 31.7242 16.024C31.6122 15.768 31.5082 15.48 31.4122 15.16C31.3322 14.824 31.2922 14.496 31.2922 14.176C31.2922 13.904 31.3242 13.648 31.3882 13.408C31.4522 13.168 31.5642 12.96 31.7242 12.784C32.0922 12.496 32.4682 12.248 32.8522 12.04C33.2522 11.816 33.6522 11.624 34.0522 11.464C33.2682 11.688 32.5642 12.024 31.9402 12.472C31.9242 12.488 31.9082 12.496 31.8922 12.496C31.8762 12.496 31.9082 12.448 31.9882 12.352C32.0842 12.24 32.1642 12.168 32.2282 12.136C32.7882 11.816 33.3322 11.568 33.8602 11.392C34.4042 11.2 34.8762 11.064 35.2762 10.984C35.5002 10.872 35.7482 10.768 36.0202 10.672C36.2922 10.576 36.5562 10.472 36.8122 10.36C36.6042 10.328 36.3082 10.272 35.9242 10.192C35.5402 10.112 35.1242 10 34.6762 9.856C34.2442 9.712 33.8282 9.544 33.4282 9.352C33.0442 9.16 32.7322 8.944 32.4922 8.704C32.2682 8.464 32.1722 8.2 32.2042 7.912C32.2522 7.576 32.4202 7.224 32.7082 6.856C32.9962 6.472 33.3402 6.112 33.7402 5.776C34.1402 5.424 34.5322 5.112 34.9162 4.84C35.3162 4.568 35.6522 4.36 35.9242 4.216C36.3402 3.992 36.7802 3.776 37.2442 3.568C37.7082 3.36 38.1882 3.16 38.6842 2.968C38.0122 3.176 37.3562 3.408 36.7162 3.664C36.5882 3.712 36.4922 3.736 36.4282 3.736C36.3642 3.72 36.3882 3.688 36.5002 3.64C37.0922 3.4 37.7802 3.152 38.5642 2.896C39.3482 2.64 40.0362 2.408 40.6282 2.2C42.0202 1.736 43.4042 1.36 44.7802 1.072C46.1722 0.783999 47.3882 0.639999 48.4282 0.639999C49.2602 0.639999 49.9162 0.743999 50.3962 0.951999C50.4762 1.112 50.5322 1.264 50.5642 1.408C50.5962 1.552 50.6122 1.688 50.6122 1.816C50.6122 2.104 50.5482 2.336 50.4202 2.512C50.3082 2.688 50.2122 2.824 50.1322 2.92C50.3082 2.84 50.4682 2.664 50.6122 2.392C50.6922 2.28 50.7322 2.184 50.7322 2.104C50.7482 2.024 50.7882 1.944 50.8522 1.864C50.8842 1.816 50.9642 1.856 51.0922 1.984C51.2202 2.112 51.3322 2.264 51.4282 2.44C51.5402 2.616 51.5802 2.776 51.5482 2.92C51.5002 3.192 51.3162 3.512 50.9962 3.88C50.6922 4.248 50.3242 4.6 49.8922 4.936C49.4762 5.272 49.0602 5.544 48.6442 5.752C48.2442 5.944 47.9162 6.016 47.6602 5.968C47.3722 6.224 46.9402 6.528 46.3642 6.88C45.8042 7.216 45.1962 7.552 44.5402 7.888C43.8842 8.208 43.2522 8.472 42.6442 8.68C42.0522 8.888 41.5722 8.984 41.2042 8.968C41.1402 8.92 41.0202 8.8 40.8442 8.608C40.6842 8.4 40.5322 8.168 40.3882 7.912C40.2442 7.64 40.1722 7.4 40.1722 7.192C40.1722 7.064 40.2042 6.96 40.2682 6.88C40.3482 6.768 40.5162 6.568 40.7722 6.28C41.0282 5.992 41.3562 5.688 41.7562 5.368C42.1722 5.048 42.6362 4.808 43.1482 4.648C43.2442 4.616 43.3162 4.6 43.3642 4.6C43.4602 4.6 43.4682 4.664 43.3882 4.792C43.3242 4.904 43.0842 5.136 42.6682 5.488C42.5882 5.568 42.4362 5.712 42.2122 5.92C41.9882 6.112 41.7802 6.32 41.5882 6.544C41.3962 6.752 41.3002 6.928 41.3002 7.072C41.3002 7.232 41.4522 7.304 41.7562 7.288C42.2202 7.256 42.7402 7.144 43.3162 6.952C43.9082 6.744 44.5162 6.496 45.1402 6.208C45.7642 5.904 46.3562 5.584 46.9162 5.248C47.4922 4.912 47.9802 4.592 48.3802 4.288C48.7642 4 49.0362 3.768 49.1962 3.592C49.3722 3.4 49.4602 3.248 49.4602 3.136C49.4602 3.008 49.3482 2.92 49.1242 2.872C48.9162 2.824 48.6362 2.8 48.2842 2.8C47.4042 2.8 46.3962 2.864 45.2602 2.992C44.1402 3.12 42.9642 3.336 41.7322 3.64C40.5002 3.928 39.2682 4.336 38.0362 4.864C37.7322 4.992 37.3562 5.152 36.9082 5.344C36.4602 5.52 36.0202 5.72 35.5882 5.944C35.1562 6.152 34.7962 6.376 34.5082 6.616C34.2202 6.84 34.0762 7.072 34.0762 7.312C34.0762 7.648 34.4042 7.952 35.0602 8.224C35.5242 8.416 36.0602 8.624 36.6682 8.848C37.2922 9.056 37.9162 9.264 38.5402 9.472C39.1802 9.664 39.7562 9.84 40.2682 10C40.3802 10.016 40.4362 10.072 40.4362 10.168C40.4362 10.28 40.3562 10.424 40.1962 10.6C40.0362 10.76 39.8602 10.912 39.6682 11.056C39.4922 11.184 39.3562 11.264 39.2602 11.296C38.7002 11.44 38.0842 11.648 37.4122 11.92C36.7402 12.176 36.1002 12.448 35.4922 12.736C34.9002 13.024 34.4122 13.304 34.0282 13.576C33.6442 13.848 33.4602 14.072 33.4762 14.248C33.6842 14.408 34.0122 14.488 34.4602 14.488C34.9722 14.488 35.5882 14.392 36.3082 14.2C37.0282 14.008 37.7802 13.736 38.5642 13.384C38.4522 13.448 38.3402 13.504 38.2282 13.552C38.1322 13.6 38.0442 13.64 37.9642 13.672C37.8042 13.736 37.6282 13.824 37.4362 13.936C37.2442 14.032 37.0842 14.12 36.9562 14.2C36.8282 14.264 36.7802 14.296 36.8122 14.296C37.0042 14.248 37.2762 14.152 37.6282 14.008C37.9962 13.848 38.3802 13.672 38.7802 13.48C39.1962 13.288 39.5482 13.112 39.8362 12.952L42.4762 11.536C42.2842 11.632 42.0282 11.76 41.7082 11.92C41.3882 12.064 41.0602 12.224 40.7242 12.4C40.3882 12.56 40.1002 12.696 39.8602 12.808C39.6202 12.92 39.4922 12.976 39.4762 12.976C39.4442 12.976 39.4762 12.944 39.5722 12.88C39.4122 12.976 39.2442 13.064 39.0682 13.144C38.9082 13.224 38.7402 13.304 38.5642 13.384C38.7242 13.304 38.8922 13.224 39.0682 13.144C39.2442 13.048 39.4362 12.952 39.6442 12.856L45.3082 9.808C45.1802 9.936 44.8442 10.168 44.3002 10.504C43.7722 10.824 43.1642 11.168 42.4762 11.536C43.2602 11.152 43.9642 10.792 44.5882 10.456C45.2282 10.12 45.7082 9.864 46.0282 9.688C46.2842 9.56 46.4522 9.496 46.5322 9.496C46.6602 9.496 46.6762 9.576 46.5802 9.736C46.5002 9.896 46.3242 10.104 46.0522 10.36C45.5082 10.872 44.7962 11.424 43.9162 12.016C43.0522 12.592 42.1002 13.168 41.0602 13.744C40.0202 14.304 38.9722 14.816 37.9162 15.28C36.8602 15.728 35.8762 16.08 34.9642 16.336C34.9642 16.4 34.9482 16.48 34.9162 16.576C34.8842 16.672 34.8362 16.736 34.7722 16.768C34.5642 16.912 34.2762 17.016 33.9082 17.08C33.5562 17.144 33.2282 17.176 32.9242 17.176ZM38.9722 2.944C40.0922 2.592 41.2442 2.28 42.4282 2.008C43.6282 1.736 44.7482 1.52 45.7882 1.36C46.8442 1.2 47.7162 1.12 48.4042 1.12C48.8202 1.12 49.0282 1.088 49.0282 1.024C49.0282 0.975999 48.9402 0.951999 48.7642 0.951999C47.8842 0.92 46.7802 1.008 45.4522 1.216C44.1242 1.424 42.7002 1.752 41.1802 2.2C40.8282 2.296 40.4522 2.416 40.0522 2.56C39.6522 2.688 39.2922 2.816 38.9722 2.944ZM34.4842 11.32C34.9962 11.176 35.5402 11.048 36.1162 10.936C36.6922 10.808 37.1082 10.736 37.3642 10.72C37.4762 10.704 37.5322 10.68 37.5322 10.648C37.5322 10.616 37.4922 10.584 37.4122 10.552C37.3322 10.52 37.2602 10.512 37.1962 10.528C37.0042 10.56 36.7962 10.608 36.5722 10.672C36.3642 10.72 36.1002 10.784 35.7802 10.864C35.5722 10.928 35.3562 11 35.1322 11.08C34.9082 11.16 34.6922 11.24 34.4842 11.32Z" fill="black"/>
</svg>
