<svg width="64" height="64" viewBox="0 0 64 64" fill="none" xmlns="http://www.w3.org/2000/svg">
<g clip-path="url(#clip0_15_25)">
<path d="M34.172 37.7089C32.7084 36.3142 30.6165 35.8699 28.7125 36.5501C26.372 37.386 24.7995 39.6174 24.7995 42.1026V44.0866C24.7995 46.7615 26.9758 48.9377 29.6506 48.9377C31.422 48.9377 33.0516 47.973 33.9037 46.4199L35.166 44.119C36.3247 42.007 35.916 39.371 34.172 37.7089ZM32.9741 42.9166L31.7119 45.2176C31.2989 45.9702 30.5091 46.4379 29.6506 46.4379C28.3543 46.4379 27.2995 45.3831 27.2995 44.0867V42.1027C27.2995 40.6712 28.2052 39.3861 29.5532 38.9045C29.866 38.7927 30.1884 38.7384 30.5074 38.7384C31.2178 38.7384 31.9119 39.0086 32.4472 39.5187C33.3717 40.3997 33.5885 41.797 32.9741 42.9166Z" fill="#5D606F"/>
<path d="M52.1896 58.3554L48.6985 61.8465C48.2104 62.3347 48.2102 63.1262 48.6985 63.6144C48.9426 63.8584 49.2625 63.9805 49.5824 63.9805C49.9022 63.9805 50.2222 63.8584 50.4662 63.6144L53.9574 60.1233C54.4455 59.6352 54.4456 58.8437 53.9574 58.3554C53.4692 57.8675 52.6777 57.8675 52.1896 58.3554Z" fill="#5D606F"/>
<path d="M62.4772 31.1251C61.5093 30.3109 60.2398 29.9679 58.9936 30.185C56.9416 30.5419 55.4522 32.3127 55.4522 34.3957V36.8531C53.9624 33.6332 51.8105 30.7253 49.1057 28.3331L51.3245 25.5175C52.3489 26.0573 53.5141 26.3645 54.7503 26.3645C58.3947 26.3645 61.4953 23.6572 62.0389 20.1066C63.2732 18.9852 63.9959 17.3745 63.9959 15.6953C63.9959 12.4136 61.326 9.74384 58.0443 9.74384C56.3651 9.74384 54.7544 10.4665 53.633 11.7009C50.0825 12.2444 47.3752 15.345 47.3752 18.9894C47.3752 20.9203 48.1221 22.6795 49.3409 23.9955L47.1551 26.7693C43.1013 23.8305 38.2729 22.1305 33.25 21.8878V18.4189C34.3717 19.0668 35.6555 19.4178 37.0016 19.4178C41.144 19.4178 44.5142 16.0477 44.5142 11.9051C44.5142 8.67208 42.4647 5.8388 39.4564 4.80342C38.133 1.91526 35.2135 0.0158691 31.9999 0.0158691C28.7864 0.0158691 25.8669 1.91514 24.5435 4.80342C21.5352 5.83868 19.4857 8.67196 19.4857 11.9051C19.4857 16.0477 22.8558 19.4178 26.9983 19.4178C28.3444 19.4178 29.6282 19.0668 30.7499 18.4189V21.8877C25.7274 22.1303 20.8986 23.8302 16.8448 26.769L14.6591 23.9954C15.8779 22.6793 16.6248 20.9202 16.6248 18.9893C16.6248 15.345 13.9175 12.2442 10.367 11.7007C9.24559 10.4663 7.63495 9.74372 5.95568 9.74372C2.67403 9.74372 0.00412504 12.4135 0.00412504 15.6951C0.00412504 17.3744 0.726757 18.9851 1.96114 20.1064C2.50465 23.657 5.6053 26.3644 9.24972 26.3644C10.4859 26.3644 11.6511 26.0571 12.6755 25.5174L14.8943 28.333C12.1897 30.7249 10.0376 33.6328 8.54783 36.8527V34.3956C8.54783 32.3128 7.05844 30.5419 5.0063 30.1848C3.76029 29.9684 2.49065 30.3108 1.52276 31.1249C0.555005 31.9389 0 33.1311 0 34.3957V41.503C0 47.0345 2.15402 52.2348 6.06531 56.146L13.5338 63.6145C13.7779 63.8585 14.0978 63.9806 14.4176 63.9806C14.7375 63.9806 15.0575 63.8585 15.3015 63.6145C15.7897 63.1264 15.7897 62.3349 15.3015 61.8466L7.83295 54.3782C4.39404 50.9391 2.50002 46.3666 2.50002 41.503V34.3957C2.50002 33.871 2.7304 33.3761 3.13216 33.0383C3.53378 32.7003 4.06066 32.5584 4.57804 32.6481C5.42968 32.7963 6.04793 33.5312 6.04793 34.3957V42.3318C6.04793 44.8828 7.04144 47.2813 8.84534 49.0854L15.6252 55.8652L16.129 56.369C16.6173 56.8571 17.4087 56.8572 17.8969 56.369C18.3851 55.8809 18.3851 55.0894 17.8969 54.6012L10.8045 47.5087C9.97272 46.6771 9.97272 45.3238 10.8045 44.4921C11.6361 43.6603 12.9895 43.6603 13.8211 44.4921L19.5048 50.1757C19.7392 50.4101 20.0572 50.5419 20.3887 50.5419C22.8106 50.5419 25.0875 51.485 26.8 53.1975C29.3473 55.7448 30.7502 59.1316 30.7502 62.734C30.7502 63.4242 31.3098 63.984 32.0002 63.984C32.6906 63.984 33.2502 63.4242 33.2502 62.734C33.2502 59.1316 34.6531 55.7448 37.2004 53.1975C38.9128 51.485 41.1897 50.5419 43.6116 50.5419C43.9431 50.5419 44.2611 50.4101 44.4954 50.1757L50.179 44.4921C51.0107 43.6603 52.364 43.6605 53.1958 44.4921C54.0275 45.3237 54.0275 46.677 53.1958 47.5087L46.1033 54.6012C45.6152 55.0893 45.6152 55.8808 46.1033 56.369C46.3475 56.6131 46.6673 56.7352 46.9872 56.7352C47.3071 56.7352 47.6271 56.6131 47.8711 56.369L48.375 55.8652L55.1548 49.0854C56.9587 47.2812 57.9522 44.8828 57.9522 42.3318V34.3957C57.9522 33.5312 58.5703 32.7962 59.422 32.6482C59.9388 32.5581 60.4662 32.7002 60.8678 33.0383C61.2696 33.3761 61.5 33.871 61.5 34.3957V41.503C61.5 44.5147 60.7433 47.5072 59.3118 50.1572C58.9837 50.7646 59.2102 51.5231 59.8176 51.8513C60.4246 52.1789 61.1832 51.9529 61.5115 51.3455C63.1395 48.3316 64 44.9281 64 41.503V34.3957C64 33.1311 63.445 31.9389 62.4772 31.1251ZM54.3709 14.1308C54.7305 14.1031 55.0608 13.9215 55.2767 13.6325C55.9358 12.7499 56.9446 12.2439 58.0442 12.2439C59.9475 12.2439 61.4957 13.7923 61.4957 15.6953C61.4957 16.7949 60.9896 17.8035 60.107 18.4629C59.818 18.6789 59.6363 19.0091 59.6087 19.3687C59.4152 21.8897 57.2809 23.8645 54.7502 23.8645C52.062 23.8645 49.8751 21.6776 49.8751 18.9894C49.8752 16.4585 51.8499 14.3244 54.3709 14.1308ZM21.9857 11.9051C21.9857 9.60159 23.5441 7.60244 25.7755 7.04331C26.1776 6.94256 26.5038 6.64893 26.6459 6.25943C27.4635 4.02028 29.615 2.51589 31.9999 2.51589C34.3848 2.51589 36.5365 4.02028 37.354 6.25943C37.4962 6.64881 37.8222 6.94256 38.2244 7.04331C40.4558 7.60244 42.0142 9.60159 42.0142 11.9051C42.0142 14.669 39.7655 16.9178 37.0016 16.9178C35.6661 16.9178 34.4221 16.4004 33.4902 15.4804L35.7533 13.2172C36.2415 12.7291 36.2415 11.9376 35.7533 11.4494C35.2652 10.9614 34.4737 10.9614 33.9855 11.4494L33.2498 12.185V7.98007C33.2498 7.28982 32.6902 6.73006 31.9998 6.73006C31.3094 6.73006 30.7498 7.28982 30.7498 7.98007V13.4459L28.7587 11.4547C28.2705 10.9667 27.479 10.9667 26.9908 11.4547C26.5026 11.9429 26.5026 12.7344 26.9908 13.2226L29.8185 16.0504C28.9993 16.6105 28.0259 16.9177 26.998 16.9177C24.2344 16.9177 21.9857 14.669 21.9857 11.9051ZM4.39117 19.3687C4.36354 19.0091 4.18192 18.6788 3.89291 18.4629C3.01028 17.8037 2.50415 16.7949 2.50415 15.6953C2.50415 13.7921 4.05254 12.2439 5.95568 12.2439C7.05532 12.2439 8.06408 12.75 8.72321 13.6325C8.93909 13.9216 9.26934 14.1033 9.62897 14.1308C12.15 14.3244 14.1248 16.4584 14.1248 18.9893C14.1248 21.6775 11.9379 23.8644 9.24972 23.8644C6.71894 23.8645 4.58479 21.8897 4.39117 19.3687ZM9.24234 42.5318C9.97935 39.2723 11.401 36.2835 13.3389 33.7117H16.9474C18.6486 33.7117 20.0326 35.0956 20.0326 36.7969C20.0326 37.7701 19.5657 38.6969 18.7836 39.276C17.4598 40.2565 16.5164 41.6545 16.0772 43.2128L15.5888 42.7244C13.8493 40.9849 11.0597 40.9213 9.24234 42.5318ZM43.0818 48.0537C40.191 48.1831 37.4917 49.3704 35.4325 51.4297C33.9481 52.9141 32.7923 54.6394 32.0001 56.5169C31.2078 54.6394 30.052 52.914 28.5678 51.4297C26.5084 49.3704 23.8091 48.1831 20.9183 48.0537L18.2987 45.4341V45.2013C18.2987 43.6639 19.0362 42.1999 20.2716 41.2849C21.6875 40.2364 22.5326 38.5585 22.5326 36.7967C22.5326 33.7171 20.0272 31.2116 16.9474 31.2116H15.5144C19.7726 26.9638 25.6375 24.3567 32.0001 24.3567C36.3525 24.3567 40.4713 25.5756 44.0023 27.7049C40.4014 28.788 37.7701 32.1326 37.7701 36.0817C37.7701 39.0679 39.2686 41.8164 41.7788 43.4342L44.3784 45.1093C44.7089 45.3223 44.9996 45.5882 45.2416 45.8936L43.0818 48.0537ZM48.4111 42.7244L47.0162 44.1194C46.644 43.6929 46.2132 43.3178 45.7328 43.0082L43.133 41.333C41.3404 40.1776 40.2701 38.2146 40.2701 36.082C40.2701 32.6373 43.0724 29.8349 46.5171 29.8349H46.9826C50.8085 33.0439 53.6114 37.4604 54.7579 42.5319C52.9405 40.9213 50.1509 40.9848 48.4111 42.7244Z" fill="#5D606F"/>
<path d="M57.0514 54.0126C56.7214 54.0126 56.3989 54.1453 56.1664 54.3776C55.9339 54.6101 55.8014 54.9326 55.8014 55.2626C55.8014 55.5914 55.9339 55.9126 56.1664 56.1464C56.4001 56.3789 56.7214 56.5126 57.0514 56.5126C57.3801 56.5126 57.7014 56.379 57.9351 56.1464C58.1676 55.9126 58.3014 55.5914 58.3014 55.2626C58.3014 54.9326 58.1676 54.6114 57.9351 54.3776C57.7014 54.1453 57.3803 54.0126 57.0514 54.0126Z" fill="#5D606F"/>
</g>
<defs>
<clipPath id="clip0_15_25">
<rect width="64" height="64" fill="white"/>
</clipPath>
</defs>
</svg>
